<svg width="64" height="64" viewBox="0 0 64 64" fill="none" xmlns="http://www.w3.org/2000/svg">
<path d="M14 36H50" stroke="#3D2E1E" stroke-width="2" stroke-linecap="round"/>
<path d="M16 36C16 31.7565 17.6857 27.6869 20.6863 24.6863C23.6869 21.6857 27.7565 20 32 20C36.2435 20 40.3131 21.6857 43.3137 24.6863C46.3143 27.6869 48 31.7565 48 36" fill="#B87333"/>
<path d="M32 10V18" stroke="#C4956A" stroke-width="2.5" stroke-linecap="round"/>
<path d="M18 16L22 22" stroke="#C4956A" stroke-width="2.5" stroke-linecap="round"/>
<path d="M46 16L42 22" stroke="#C4956A" stroke-width="2.5" stroke-linecap="round"/>
<path d="M10 28H18" stroke="#C4956A" stroke-width="2.5" stroke-linecap="round"/>
<path d="M46 28H54" stroke="#C4956A" stroke-width="2.5" stroke-linecap="round"/>
<path fill-rule="evenodd" clip-rule="evenodd" d="M37.8449 39.5352C38.5185 39.4945 38.9901 39.768 39.2599 40.3555C39.5543 41.0798 39.4859 41.7699 39.0549 42.4258C38.3986 43.1029 37.7424 43.1029 37.0861 42.4258C36.5856 41.6532 36.5719 40.8719 37.0451 40.0821C37.2507 39.8141 37.5173 39.6318 37.8449 39.5352Z" fill="#B87333"/>
<path fill-rule="evenodd" clip-rule="evenodd" d="M34.5635 39.6523C35.0934 39.667 35.4967 39.8883 35.7735 40.3164C36.0955 40.9557 36.1229 41.6068 35.8555 42.2695C35.4487 43.0323 34.8403 43.2341 34.0303 42.875C33.4291 42.3551 33.2035 41.7106 33.3536 40.9414C33.4765 40.2596 33.8798 39.8299 34.5635 39.6523Z" fill="#B87333"/>
<path fill-rule="evenodd" clip-rule="evenodd" d="M40.6753 41.7618C41.4118 41.699 41.8561 42.0115 42.0083 42.6993C42.1162 43.4196 41.9043 44.0381 41.3725 44.5548C40.9422 44.8798 40.4773 44.9319 39.978 44.711C39.5296 44.3152 39.3587 43.8269 39.4653 43.2462C39.5852 42.5334 39.9885 42.0386 40.6753 41.7618Z" fill="#B87333"/>
<path fill-rule="evenodd" clip-rule="evenodd" d="M31.5693 41.8008C32.4096 41.8777 32.9496 42.3074 33.1895 43.0898C33.3371 43.5795 33.2824 44.0482 33.0254 44.4961C32.7336 44.8448 32.3576 44.9685 31.8975 44.8672C31.0773 44.5306 30.6535 43.9316 30.626 43.0703C30.6326 42.6602 30.783 42.3086 31.0771 42.0156C31.2324 41.9168 31.3964 41.8452 31.5693 41.8008Z" fill="#B87333"/>
<path fill-rule="evenodd" clip-rule="evenodd" d="M35.9575 43.5975C36.9318 43.5113 37.7179 43.8369 38.3159 44.5741C38.8492 45.134 39.3824 45.6939 39.9156 46.2538C40.4116 47.1818 40.2543 47.9956 39.4439 48.6952C38.817 49.0718 38.1607 49.1239 37.4751 48.8514C37.1429 48.6443 36.7807 48.5206 36.3882 48.4803C35.9366 48.5542 35.506 48.691 35.0962 48.8905C33.954 49.1181 33.1542 48.7209 32.6968 47.6991C32.4992 47.0387 32.6222 46.4397 33.0659 45.9022C33.7064 45.2875 34.3421 44.669 34.9732 44.0467C35.278 43.8429 35.6061 43.6932 35.9575 43.5975Z" fill="#B87333"/>
<path fill-rule="evenodd" clip-rule="evenodd" d="M29.1088 47.9336C30.0205 47.9485 30.5469 48.3912 30.6879 49.2617C30.8205 50.0285 30.5813 50.66 29.9701 51.1562C29.3643 51.4531 28.838 51.3555 28.391 50.8633C27.8909 50.118 27.8499 49.3498 28.268 48.5586C28.4736 48.2513 28.7538 48.043 29.1088 47.9336Z" fill="#B87333"/>
<path fill-rule="evenodd" clip-rule="evenodd" d="M25.8678 48.0508C26.5334 48.098 26.9777 48.4236 27.2008 49.0273C27.4474 49.7789 27.3244 50.4691 26.8317 51.0977C26.0321 51.6635 25.3622 51.5463 24.8219 50.7461C24.489 50.0082 24.53 49.2921 24.945 48.5977C25.1834 48.2991 25.491 48.1168 25.8678 48.0508Z" fill="#B87333"/>
<path fill-rule="evenodd" clip-rule="evenodd" d="M31.9384 50.1598C32.6446 50.0824 33.089 50.3689 33.2714 51.0192C33.4151 51.7934 33.1895 52.4509 32.5946 52.9918C32.1673 53.2804 31.7161 53.3195 31.2411 53.109C30.8162 52.7348 30.6453 52.2726 30.7284 51.7223C30.8309 50.9814 31.2342 50.4606 31.9384 50.1598Z" fill="#B87333"/>
<path fill-rule="evenodd" clip-rule="evenodd" d="M22.874 50.1992C23.6977 50.2699 24.2241 50.6866 24.4531 51.4492C24.6559 52.0461 24.5533 52.5864 24.1455 53.0703C23.6531 53.3892 23.1609 53.3762 22.6689 53.0312C21.8962 52.3466 21.7253 51.5458 22.1563 50.6289C22.3447 50.3997 22.5839 50.2564 22.874 50.1992Z" fill="#B87333"/>
<path fill-rule="evenodd" clip-rule="evenodd" d="M27.2627 51.9957C27.8944 51.9271 28.4686 52.0638 28.9854 52.4059C29.7895 53.1585 30.5483 53.9463 31.2617 54.7692C31.62 55.5082 31.538 56.1983 31.0156 56.8395C30.3534 57.4511 29.5946 57.5879 28.7393 57.2496C28.4124 57.0483 28.0569 56.9245 27.6729 56.8785C27.5485 56.8905 27.4254 56.91 27.3037 56.9371C26.9482 57.0673 26.5928 57.1976 26.2373 57.3278C24.8239 57.4536 24.031 56.8416 23.8584 55.4918C23.8946 54.9868 24.0929 54.5506 24.4531 54.1832C25.0491 53.6287 25.6301 53.0623 26.1963 52.484C26.5178 52.2462 26.8733 52.0835 27.2627 51.9957Z" fill="#B87333"/>
</svg>
