<svg xmlns="http://www.w3.org/2000/svg" viewBox="0 0 64 64" fill="none" aria-hidden="true">
  <circle cx="32" cy="32" r="26" stroke="#C4956A" stroke-width="2.5" fill="none"/>
  <ellipse cx="22" cy="22" rx="3.5" ry="5" fill="#3D2E1E"/>
  <ellipse cx="32" cy="18" rx="3.5" ry="5" fill="#3D2E1E"/>
  <ellipse cx="42" cy="22" rx="3.5" ry="5" fill="#3D2E1E"/>
  <ellipse cx="48" cy="32" rx="3" ry="4" fill="#3D2E1E"/>
  <path d="M22 42 C22 35 28 32 32 32 C36 32 42 35 42 42 C42 47 38 50 32 50 C26 50 22 47 22 42 Z" fill="#3D2E1E"/>
  <path d="M30 40 C28 39 27 40 27 42 C27 43 29 44 32 46 C35 44 37 43 37 42 C37 40 36 39 34 40 C33 40.5 32 41 32 41 C32 41 31 40.5 30 40 Z" fill="#B87333"/>
</svg>
