<svg width="64" height="64" viewBox="0 0 64 64" fill="none" xmlns="http://www.w3.org/2000/svg">
<path d="M32 58C46.3594 58 58 46.3594 58 32C58 17.6406 46.3594 6 32 6C17.6406 6 6 17.6406 6 32C6 46.3594 17.6406 58 32 58Z" stroke="#C4956A" stroke-width="2.5"/>
<path fill-rule="evenodd" clip-rule="evenodd" d="M42.6326 14.5184C43.9155 14.4392 44.814 14.9724 45.3279 16.118C45.8885 17.5304 45.7583 18.8761 44.9372 20.1552C43.6872 21.4754 42.4372 21.4754 41.1872 20.1552C40.2339 18.6485 40.2079 17.1251 41.1091 15.5848C41.5007 15.0622 42.0085 14.7068 42.6326 14.5184Z" fill="#B87333"/>
<path fill-rule="evenodd" clip-rule="evenodd" d="M36.3825 14.7471C37.3918 14.7756 38.1601 15.2072 38.6872 16.042C39.3006 17.2887 39.3527 18.5582 38.8435 19.8506C38.0686 21.338 36.9098 21.7316 35.3669 21.0312C34.2217 20.0175 33.792 18.7607 34.0778 17.2607C34.312 15.9312 35.0803 15.0933 36.3825 14.7471Z" fill="#B87333"/>
<path fill-rule="evenodd" clip-rule="evenodd" d="M48.0234 18.8601C49.4263 18.7376 50.2726 19.347 50.5624 20.6882C50.768 22.0929 50.3643 23.2989 49.3515 24.3064C48.5317 24.9403 47.6463 25.0418 46.6953 24.6111C45.8411 23.8393 45.5156 22.8872 45.7187 21.7546C45.9471 20.3648 46.7153 19.3999 48.0234 18.8601Z" fill="#B87333"/>
<path fill-rule="evenodd" clip-rule="evenodd" d="M30.6797 18.9365C32.2802 19.0865 33.3088 19.9244 33.7656 21.4502C34.0469 22.405 33.9427 23.3191 33.4531 24.1924C32.8973 24.8724 32.1812 25.1136 31.3047 24.916C29.7425 24.2596 28.9352 23.0917 28.8828 21.4121C28.8955 20.6123 29.182 19.9268 29.7422 19.3555C30.0378 19.1629 30.3503 19.0232 30.6797 18.9365Z" fill="#B87333"/>
<path fill-rule="evenodd" clip-rule="evenodd" d="M39.0392 22.4405C40.8949 22.2723 42.3923 22.9072 43.5314 24.3448C44.547 25.4365 45.5626 26.5284 46.5783 27.6201C47.523 29.4298 47.2235 31.0167 45.6798 32.3809C44.4858 33.1153 43.2358 33.2169 41.9298 32.6856C41.2971 32.2816 40.607 32.0404 39.8595 31.9619C38.9994 32.1061 38.1791 32.3727 37.3986 32.7618C35.223 33.2055 33.6995 32.4311 32.8283 30.4385C32.4519 29.1507 32.6862 27.9827 33.5314 26.9346C34.7513 25.7359 35.9623 24.5299 37.1642 23.3164C37.7448 22.919 38.3698 22.627 39.0392 22.4405Z" fill="#B87333"/>
<path fill-rule="evenodd" clip-rule="evenodd" d="M25.9921 30.8955C27.7288 30.9246 28.7314 31.7879 28.9999 33.4854C29.2526 34.9806 28.7969 36.2121 27.6328 37.1797C26.4788 37.7586 25.4763 37.5682 24.6249 36.6084C23.6724 35.1551 23.5942 33.657 24.3906 32.1143C24.7822 31.515 25.316 31.1088 25.9921 30.8955Z" fill="#B87333"/>
<path fill-rule="evenodd" clip-rule="evenodd" d="M19.8199 31.124C21.0877 31.2161 21.9341 31.8509 22.359 33.0283C22.8287 34.4939 22.5943 35.8397 21.6559 37.0654C20.1329 38.1688 18.8569 37.9403 17.8277 36.3799C17.1936 34.9411 17.2717 33.5445 18.0621 32.1904C18.5163 31.6082 19.1022 31.2528 19.8199 31.124Z" fill="#B87333"/>
<path fill-rule="evenodd" clip-rule="evenodd" d="M31.3826 35.237C32.7279 35.0861 33.5742 35.6447 33.9216 36.9127C34.1955 38.4224 33.7658 39.7046 32.6326 40.7594C31.8186 41.3221 30.9592 41.3983 30.0545 40.9879C29.2452 40.2582 28.9196 39.3569 29.0779 38.2838C29.2731 36.8392 30.0413 35.8236 31.3826 35.237Z" fill="#B87333"/>
<path fill-rule="evenodd" clip-rule="evenodd" d="M14.1176 35.3135C15.6865 35.4513 16.6891 36.2638 17.1254 37.751C17.5116 38.9148 17.3163 39.9685 16.5395 40.9121C15.6016 41.534 14.6641 41.5086 13.727 40.8359C12.2551 39.5008 11.9295 37.9393 12.7504 36.1514C13.1093 35.7044 13.565 35.4251 14.1176 35.3135Z" fill="#B87333"/>
<path fill-rule="evenodd" clip-rule="evenodd" d="M22.4766 38.8177C23.6798 38.6839 24.7735 38.9505 25.7578 39.6175C27.2895 41.0851 28.7348 42.6213 30.0938 44.2259C30.7762 45.6671 30.6199 47.0128 29.625 48.263C28.3636 49.4558 26.9183 49.7224 25.2891 49.0628C24.6664 48.6702 23.9893 48.4289 23.2578 48.3392C23.0209 48.3625 22.7866 48.4006 22.5547 48.4535C21.8776 48.7074 21.2005 48.9613 20.5234 49.2152C17.8313 49.4605 16.3209 48.2672 15.9922 45.6351C16.0612 44.6503 16.4388 43.7997 17.125 43.0834C18.2601 42.0021 19.3669 40.8976 20.4453 39.7699C21.0577 39.3062 21.7348 38.9888 22.4766 38.8177Z" fill="#B87333"/>
</svg>
