<svg width="797" height="797" viewBox="0 0 797 797" fill="none" xmlns="http://www.w3.org/2000/svg">
<rect width="797" height="797" fill="#FAF7F2"/>
<path d="M230 167C239.152 167.436 251.136 167.872 265.953 168.308C280.77 168.744 295.37 168.962 309.751 168.962C330.233 168.962 349.844 168.744 368.584 168.308C387.323 167.872 400.615 167.654 408.459 167.654C461.191 167.654 500.63 179.643 526.778 203.621C552.926 227.6 566 258.554 566 296.483C566 312.178 563.385 328.745 558.156 346.184C552.926 363.186 543.774 379.099 530.7 393.922C518.062 408.309 500.63 420.08 478.405 429.236C456.179 438.391 428.07 442.969 394.078 442.969H331.323V429.89H387.541C418.482 429.89 442.016 424.004 458.14 412.233C474.7 400.462 485.813 384.985 491.479 365.802C497.58 346.62 500.63 325.911 500.63 303.677C500.63 262.259 492.35 231.306 475.79 210.815C459.665 190.324 431.774 180.079 392.117 180.079C372.07 180.079 358.996 183.785 352.895 191.196C346.794 198.608 343.743 213.649 343.743 236.319V560.681C343.743 576.376 345.268 588.147 348.319 595.994C351.805 603.842 358.342 609.073 367.93 611.689C377.518 614.305 391.463 616.049 409.767 616.921V630C398.436 629.128 384.054 628.692 366.623 628.692C349.191 628.256 331.541 628.038 313.673 628.038C296.677 628.038 280.77 628.256 265.953 628.692C251.136 628.692 239.152 629.128 230 630V616.921C244.817 616.049 255.93 614.305 263.339 611.689C271.183 609.073 276.412 603.842 279.027 595.994C281.642 588.147 282.949 576.376 282.949 560.681V236.319C282.949 220.188 281.642 208.417 279.027 201.006C276.412 193.158 271.183 187.927 263.339 185.311C255.93 182.259 244.817 180.515 230 180.079V167Z" fill="#3D2E1E"/>
<path fill-rule="evenodd" clip-rule="evenodd" d="M456.63 249.143C461.024 248.862 464.101 250.749 465.861 254.803C467.782 259.8 467.336 264.562 464.524 269.088C460.242 273.76 455.961 273.76 451.68 269.088C448.415 263.757 448.325 258.366 451.412 252.916C452.753 251.067 454.493 249.809 456.63 249.143Z" fill="#B87333"/>
<path fill-rule="evenodd" clip-rule="evenodd" d="M435.224 249.951C438.681 250.052 441.312 251.579 443.117 254.533C445.218 258.945 445.397 263.437 443.652 268.01C440.999 273.273 437.03 274.666 431.745 272.188C427.823 268.6 426.351 264.153 427.33 258.846C428.132 254.141 430.764 251.176 435.224 249.951Z" fill="#B87333"/>
<path fill-rule="evenodd" clip-rule="evenodd" d="M475.093 264.506C479.898 264.072 482.797 266.229 483.789 270.975C484.493 275.945 483.111 280.213 479.642 283.777C476.834 286.02 473.801 286.38 470.544 284.855C467.619 282.125 466.504 278.755 467.199 274.748C467.982 269.83 470.613 266.416 475.093 264.506Z" fill="#B87333"/>
<path fill-rule="evenodd" clip-rule="evenodd" d="M415.691 264.775C421.172 265.306 424.695 268.271 426.26 273.67C427.223 277.048 426.866 280.283 425.19 283.373C423.286 285.779 420.833 286.633 417.831 285.934C412.481 283.611 409.716 279.478 409.536 273.535C409.58 270.705 410.561 268.279 412.48 266.258C413.492 265.576 414.562 265.082 415.691 264.775Z" fill="#B87333"/>
<path fill-rule="evenodd" clip-rule="evenodd" d="M444.321 277.174C450.677 276.579 455.806 278.825 459.707 283.912C463.186 287.775 466.664 291.639 470.143 295.502C473.379 301.905 472.353 307.52 467.066 312.348C462.976 314.947 458.695 315.306 454.222 313.426C452.055 311.996 449.691 311.143 447.131 310.865C444.185 311.375 441.375 312.319 438.702 313.695C431.251 315.266 426.033 312.525 423.049 305.475C421.76 300.918 422.563 296.785 425.457 293.076C429.635 288.835 433.783 284.567 437.9 280.273C439.888 278.867 442.029 277.834 444.321 277.174Z" fill="#B87333"/>
<path fill-rule="evenodd" clip-rule="evenodd" d="M399.636 307.092C405.584 307.195 409.018 310.25 409.938 316.256C410.803 321.547 409.242 325.904 405.255 329.328C401.303 331.377 397.869 330.703 394.953 327.307C391.691 322.164 391.423 316.863 394.151 311.404C395.492 309.284 397.32 307.846 399.636 307.092Z" fill="#B87333"/>
<path fill-rule="evenodd" clip-rule="evenodd" d="M378.497 307.9C382.839 308.226 385.738 310.473 387.193 314.639C388.802 319.825 387.999 324.587 384.785 328.924C379.569 332.828 375.199 332.019 371.674 326.498C369.502 321.407 369.77 316.465 372.477 311.674C374.032 309.614 376.039 308.356 378.497 307.9Z" fill="#B87333"/>
<path fill-rule="evenodd" clip-rule="evenodd" d="M418.099 322.455C422.706 321.921 425.605 323.898 426.795 328.385C427.733 333.727 426.261 338.264 422.38 341.996C419.592 343.987 416.649 344.257 413.55 342.805C410.778 340.223 409.663 337.033 410.205 333.236C410.874 328.124 413.505 324.531 418.099 322.455Z" fill="#B87333"/>
<path fill-rule="evenodd" clip-rule="evenodd" d="M358.964 322.725C364.338 323.212 367.771 326.087 369.266 331.35C370.588 335.468 369.919 339.196 367.259 342.535C364.047 344.736 360.836 344.646 357.626 342.266C352.585 337.541 351.47 332.016 354.281 325.689C355.511 324.108 357.071 323.119 358.964 322.725Z" fill="#B87333"/>
<path fill-rule="evenodd" clip-rule="evenodd" d="M387.595 335.123C391.716 334.649 395.462 335.593 398.833 337.953C404.079 343.146 409.029 348.582 413.684 354.26C416.021 359.359 415.486 364.121 412.078 368.545C407.758 372.766 402.808 373.709 397.228 371.375C395.095 369.986 392.776 369.132 390.271 368.814C389.459 368.897 388.657 369.032 387.862 369.219C385.543 370.117 383.224 371.016 380.905 371.914C371.685 372.782 366.512 368.559 365.386 359.246C365.622 355.761 366.916 352.752 369.266 350.217C373.153 346.391 376.944 342.483 380.638 338.492C382.735 336.852 385.054 335.728 387.595 335.123Z" fill="#B87333"/>
</svg>
