<svg xmlns="http://www.w3.org/2000/svg" viewBox="0 0 64 64" fill="none" aria-hidden="true">
  <path d="M14 36 H50" stroke="#3D2E1E" stroke-width="2" stroke-linecap="round"/>
  <path d="M16 36 A16 16 0 0 1 48 36" fill="#B87333"/>
  <path d="M32 10 V18" stroke="#C4956A" stroke-width="2.5" stroke-linecap="round"/>
  <path d="M18 16 L22 22" stroke="#C4956A" stroke-width="2.5" stroke-linecap="round"/>
  <path d="M46 16 L42 22" stroke="#C4956A" stroke-width="2.5" stroke-linecap="round"/>
  <path d="M10 28 H18" stroke="#C4956A" stroke-width="2.5" stroke-linecap="round"/>
  <path d="M46 28 H54" stroke="#C4956A" stroke-width="2.5" stroke-linecap="round"/>
  <ellipse cx="26" cy="48" rx="2.5" ry="3.5" fill="#3D2E1E"/>
  <ellipse cx="32" cy="45" rx="2.5" ry="3.5" fill="#3D2E1E"/>
  <ellipse cx="38" cy="48" rx="2.5" ry="3.5" fill="#3D2E1E"/>
  <path d="M26 54 C26 51 29 49 32 49 C35 49 38 51 38 54 C38 57 35 58 32 58 C29 58 26 57 26 54 Z" fill="#3D2E1E"/>
</svg>
